<svg xmlns="http://www.w3.org/2000/svg" width="124.448" height="30.954" viewBox="0 0 124.448 30.954">
  <g id="Group_460" data-name="Group 460" transform="translate(-240.831 -25.591)">
    <g id="Group_458" data-name="Group 458">
      <g id="Group_457" data-name="Group 457">
        <path id="Path_566" data-name="Path 566" d="M331.546,29.671c.036,0,.073.18.073.144.108.686.541,1.084.541,1.915,0,.469-.505.541-.469,1.047,0,.289.144.686.144.975,0,.145,0,.217-.108.253.072.109.217.109.217.325l-.506,1.229a.541.541,0,0,1,.072.361v.289c.939-.145,1.517-1.409,2.131-1.409.253-.036.253-.325.434-.433a2.049,2.049,0,0,0,1.12-.542c.252,0,1.264-.687,1.264-.939a.132.132,0,0,0,.108.036c.072,0,.145-.109.253-.109.072-.036,2.456-1.372,2.456-1.372.723,0,1.265-.687,1.409-.8.108-.036.361.036.47-.108.18.18.541-.037.541.18v.036c.434.181.831.434.831.651,0,.361-.758.939-1.083.975a.383.383,0,0,0-.109-.181c-.9.325-.614.687-.975.687-.217,0-.289-.217-.542-.217-.4,0-.144.505-.578.505a.325.325,0,0,1-.18-.036c-.362,0-2.24,1.337-2.673,1.337-.434.939-1.843.8-2.168,1.589-.433,0-.65.361-1.011.578-.036.072-1.228.65-1.228.831-.036.036-.036.253-.072.289-.181.072-.542.072-.687.181-.108.4-.433.505-.542.975-.18.108-.433.072-.433.289,0,.108.072.289.072.4a1.218,1.218,0,0,0-.325.686v.253a2.91,2.91,0,0,1-.65,1.048c0,.18-.253.289-.253.506,0,.036-.036.072-.036.144-.145.325-1.626.433-1.517.361a4.01,4.01,0,0,1-1.12.506c0-.108,0-.108-.072-.108s-.217.036-.253.036a1.618,1.618,0,0,1-.325-.614v-.037c-.253-.18.144-.794.469-1.155a.522.522,0,0,0,.578-.542v-.181c.47,0,1.409-1.409,1.409-1.372.65-.759.217-1.445.614-2.023,0-.939.361-.65.361-.976,0-.108-.036-.252-.036-.4a6.182,6.182,0,0,1,.253-.65c.145-.361.145-1.192.361-1.3a.329.329,0,0,1-.036-.181c0-.145.036-.181.036-.325,0-.072,0-.072-.072-.145,0-.18.181-.289.289-.361a2.759,2.759,0,0,1-.217-.722c0-.217.217-.325.217-.687,0-.252-.036-.867-.181-.867-.288,0-.469.217-.686.217a.308.308,0,0,1-.217-.072.167.167,0,0,0-.108.181c0,.072.036.18.036.289,0,.072,0,.072-.036.072-.469,0-.686.65-.686.65a.111.111,0,0,0,.036.072c-.723,0-.434.614-1.084.867-.072.506-.614.542-.65,1.048-.036,0-.036-.036-.072-.036-.109,0-.036.144-.109.216-.505.362-.072.109-.505.542-.072.072-.145.217-.289.289a2.78,2.78,0,0,0,.036.361c0,.506-.217.362-.289.47-.145.289-.072.325-.47,1.192,0,.036-.361.686-.614.686,0,.217-.144.289-.144.47a.272.272,0,0,0,.036.144c-.361.145-.361.578-.686.759v.18c0,.47-.4.542-.4.94,0,.072.036.144.036.216h-.108c-.325,0-.325.687-.8.867a.518.518,0,0,1,.073.217c0,.217-.181.325-.181.614v.108c-.181,0-.181.109-.361.109a.111.111,0,0,1-.072-.036c0,.325-.326.361-.362.614a2.038,2.038,0,0,1,0,.469c0,.434-.4.325-.4.506,0,.036-.072.181-.072.217,0,.072-.217,0-.217.253,0,.036-.181.18-.144.216-.073.434-.181.289-.217.542-.036.217,0,.253-.036.47-.036.18-.614.722-.651.9-.036.289-.216.4-.433.542a.456.456,0,0,1,.036.289c-.072.325-.4.65-.469.975,0,.108-.037.217.036.289-.181,0-.289.036-.362.18a.13.13,0,0,1,.073.109c-.036.18-.217.361-.253.505,0,.109.036.145.072.145h.072c-.072.144-.216.253-.216.433v.253c-.325,0-.145.4-.506.542.072.072.072.108.036.145,0,.18-.108.252-.108.4a3.526,3.526,0,0,1,.036.578c-.072.4-.361.65-.361,1.011,0,.073,0,.073.036.109-.289,0-.434.65-.434.65,0,.18.253.144.289.253a1.058,1.058,0,0,1-.253.686,2.709,2.709,0,0,1,.073.433c0,.976-1.229,1.156-1.662,1.7-.4,0-.4-.361-.795-.361a.711.711,0,0,0-.253.036.233.233,0,0,1-.072-.181c0-.072.072-.072.072-.252a1.225,1.225,0,0,1-.433-.181c.072-.4.614-.759.614-1.228,0-.072-.072-.145-.072-.217,0-.253.253-.217.253-.469,0-.145-.109-.145-.109-.326a.132.132,0,0,1,.036-.108c.181,0,.362-.65.4-.65,0,0,.253-.289.253-.4.83-2.529.253-1.77.686-2.384a3.008,3.008,0,0,0,.325-1.084c0-.289.325-.253.325-.434v-.18c0-.289.253-.939.253-1.228.47,0,.108-1.409.722-1.7a12.566,12.566,0,0,0,.434-1.734,4.277,4.277,0,0,1,.506-1.228c-.037,0-.037-.036-.037-.072,0-.145.145-.253.145-.434,0-.072-.108-.108-.108-.144a3.212,3.212,0,0,1,.433-1.373c-.036-.108-.072-.144-.072-.18a1.592,1.592,0,0,0,.072-.434c0-.289.253-.325.289-.614,0-1.264.325-.9.47-1.445a1.521,1.521,0,0,1-.145-.614c0-.614.614-.939.614-1.878a3.189,3.189,0,0,0,.542-1.77v-.145c.217-.18.325-.325.433-.975.47-.433.4-1.878.47-2.131.072-.145.434-.036.506-.217.18.181.469.072.469.4a.388.388,0,0,1,.289-.073.929.929,0,0,1,.976.976,3.313,3.313,0,0,1-.109,1.047c.036,0-.108.145-.072.145,0,0,0,.18-.036.18s-.109-.108-.217-.108a.93.93,0,0,0-.144.325c0,.072.072.072.18.072a1.123,1.123,0,0,0-.253.759v.144c-.108.036-.072.181-.18.181h-.036c-.109,0-.145.072-.217.072,0,.072.036.181.036.217,0,.289-.253.469-.253.614,0,.108.145.144.145.325v.072c-.506.109-.578,1.012-.578,1.228-.289.073-.289.47-.361.65v.109c0,.144-.145.144-.181.217-.072.216,0,.65-.361.65v.144c0,.181-.073.289-.073.506v.108c-.361.4-.686.651-.686,1.265a.811.811,0,0,0,.036.252c-.361.109-.253.687-.4,1.192,0-.036-.072.109-.181.362a6.54,6.54,0,0,1-.361.722v.145c0,.18-.217.18-.217.505a1.63,1.63,0,0,0,.181.036c.217,0,.506-.469.506-.686v-.108a1.626,1.626,0,0,1,.867-1.048c0-.036-.037-.108-.037-.144,0-.289.289-.4.362-.542a4.427,4.427,0,0,0,.361-.723c.217-.361.325-.686.614-1.119,0,.036.325-.867.65-.939V37.8c0-.144.109-.217.109-.4v-.073c.216-.252.939-1.264.939-1.264a2.253,2.253,0,0,1,1.083-1.625.133.133,0,0,1-.036-.109c0-.867.976-1.842,1.337-2.2,2.312-3.143,2.1-1.878,2.312-2.673.072-.072.216-.036.325-.108.433-.217.686-.867,1.589-.867a1.136,1.136,0,0,1,.975.614c.036.036,0,.036,0,.072s0,.181.072.181h.073c.144,0,0,.216.108.216V29.6S331.582,29.671,331.546,29.671Z" fill="#00a695"/>
        <path id="Path_567" data-name="Path 567" d="M341.477,35.956c.036-.217-.109-.181.072-.253s.722-.722.867-.759c.072-.216-.145-.361.289-.361a1.437,1.437,0,0,1,.975-.542,1.05,1.05,0,0,1,.759-.686c.325-.361.831-.542,1.083-1.011.4-.073.542-.4.831-.506.036-.144.109-.144.217-.181a1.457,1.457,0,0,0,.47-.469c.108,0,.108-.072.144-.072.217-.145.361-.289.542-.4l.469-.217.651-.433c.036,0,.144.036.144,0a.986.986,0,0,0,.325-.253c.145,0,.253.072.434.036.108-.036.108-.18.144-.216.108-.037.253.036.325,0,.217-.073.4.433.542.252.181-.072.217.217.361.326,0,0,.145-.037.181,0v.036h.144c.036,0,0,.072,0,.072.217.217.325.542.651.578-.181.144.036.289.144.469a2.527,2.527,0,0,0,.108.506c.073.217-.108.289-.108.434-.108.325.036.65-.144.866-.073.073-.326.181-.362.4a5.075,5.075,0,0,0-1.047,0c0-.145-.289-.072-.4-.145-.036,0,0-.072,0-.072a.818.818,0,0,0-.325-.289,1.182,1.182,0,0,0-.4-.9c-.4-.036-.47-.289-.578-.036-.361-.036-.469.181-.614.4a.664.664,0,0,0-.686.362h-.506c-.217.072.108.216,0,.4-.253,0-.506.325-.722.18-.073,0,0,.253-.109.289-.289.073-.505.362-.722.542a.5.5,0,0,1-.434.145c-.108.325-.433,0-.433.325-.253.072-.361.253-.542.361.036.289-.65.4-.578.722-.253.037-.686.542-.867.723a4.2,4.2,0,0,1-.614.542c0,.036-.108.036-.108.072a4.109,4.109,0,0,0-.47.578l-.361.4a5.149,5.149,0,0,0-.361.47c-.036,0-.036.108-.181.144a.685.685,0,0,1-.144.362v.036c0,.036-.109.325-.109.361-.289.289-.216.433-.216.795-.145.072-.145.289-.326.325,0,.541-.252.794-.325,1.228-.144.144-.108-.036-.361,0,.036.144-.18.108-.289.144,0,.073-.036.109-.18.073.036,0-.037-.109-.109-.073a.3.3,0,0,1-.217.253,2.272,2.272,0,0,1-.794-.758c-.036-.037-.072.036-.072-.109,0-.108,0-.217-.073-.217l.145-.469c0-.036.144-.108.18-.145,0,0-.036-.108,0-.144.073-.108,0-.253.073-.361.144-.109.108-.434.4-.687a2.756,2.756,0,0,1,.036-.578l.217-.469c0-.036.072,0,.072-.108v-.217c0-.036.145-.036.145-.072.036-.109-.037-.181,0-.217,0-.036.108-.036.108-.109a1.012,1.012,0,0,1,.036-.361c.036-.108.145-.217.217-.361a.7.7,0,0,1,.108-.433c.036-.073.036-.217.072-.253s.253-.181.253-.289a2.51,2.51,0,0,1,.361-.687c-.108-.289.109-.469-.072-.794.181,0,.072-.325.217-.325a5.98,5.98,0,0,1,.253-1.156,1.836,1.836,0,0,1,.108-.614c0-.036-.036-.145,0-.181.109-.036-.072-.036,0-.217l.145-.433v-.145c0-.144.144-.18.144-.252.072-.181,0-.4.108-.615-.108-.325-.072-.4.109-.577,0-.217.108-.289-.181-.47l-.072-.217a2.5,2.5,0,0,1-.108-.289c.144-.036-.036-.072.108-.108.217-.108.072-.217.4-.289.036,0,.109.036.145,0v-.072a1.082,1.082,0,0,1,.758,0,1.333,1.333,0,0,1,.325.072c.037.036.037.144.073.181.036,0,.144-.037.144,0,.036.036.036.144.181.144.253.036.144.253.469.289.037.072,0,.181,0,.253a.494.494,0,0,1,.073.4s-.109.036-.073.036c.109.109,0,.073,0,.253,0,0,.073,0,.073.109a.313.313,0,0,0-.073.216.679.679,0,0,1-.072.289.457.457,0,0,1-.253.289,1.606,1.606,0,0,1-.072.65c0,.037.036.181,0,.181-.181.072,0,0,0,.289l-.072.036v.289c.072.145-.145.108-.217.145a3.548,3.548,0,0,1-.614,1.517c0,.072-.433,1.156-.325,1.156C341.4,35.27,340.9,36.642,341.477,35.956Z" fill="#00a695"/>
        <path id="Path_568" data-name="Path 568" d="M354.948,30.9a.134.134,0,0,1,.109-.036V30.79l-.036-.036c.036-.036.072-.036.216-.036.145-.18,0-1.228.253-1.372a.526.526,0,0,0,.145-.073c.072-.036.216-.361.361-.361.217,0,.217.036.361.036.036,0,.181-.18.181-.18.072,0,.216.144.361.144.289,0,.433-.325.686-.325.217.036.361.325.65.325h.109v.036c0,.361.361.325.361.723h.072c1.337,0,1.59.65,2.348.65.542,0,.8.867,1.337.867a.62.62,0,0,0,.253-.036c.072.144.325.469.469.469.723,0,.686-.469,1.048.036,0,.181.4.181.216.289-.144.036.8.831.831.759a.112.112,0,0,0-.036.072c0,.036.036.217.036.289,0,.108-.325.072-.325.361,0,.253.289,1.156-.144,1.517.072.615-.47.434-.362.94h-.072c-.108,0-.144.4-.325.4s-.325.325-.325.108c-.181.217-.759.723-.578.723-.181.18-.578-.109-.578.614-.217.036-.9,1.12-.9.939-.108.108-.289.036-.289.217a2.332,2.332,0,0,0-1.264,1.481c0,.036.072,0,.072.072,0,.217-.4.4-.578.4a.178.178,0,0,1-.108-.036c-.325.181.108.614-.687.614-.18.036-.325.506-.361.506-.578,0-.867.506-1.372.506a7.107,7.107,0,0,1-.867-.109c-.362,0-.47.253-.687.289-.289,0-.505-.289-.578-.289-.65-.325-.614-.036-1.372-.794v-.145c0-.072,0-.108-.036-.108h-.073v-.217h-.072V40.8a.363.363,0,0,1-.108.036c-.036,0-.036-.036-.036-.072v-.144a.134.134,0,0,0-.073-.109c0-.072.073-.108.073-.217-.47-.469-.036-.975-.47-1.336.108-.289.072-.795.325-.975a1.538,1.538,0,0,1-.217-.542s.109-.072.109-.145c0-.144-.036-.144-.109-.18.073-.073.578-1.156.578-1.156,0-.109-.072-.181-.072-.253a8.477,8.477,0,0,1,.867-1.192v-.253c0-.253.217-.289.47-1.192,0-.253.216-.325.216-.578,0-.144-.541-.831-.108-.831C354.84,31.621,354.768,31.007,354.948,30.9Zm6.177,1.011h-.686a5.9,5.9,0,0,1-.831-.072c-.144,0-.144.108-.217.108s-.18-.036-.216-.036a.719.719,0,0,1-.4.072.753.753,0,0,0-.542-.252c-.216,0-.758,1.3-.794,1.3-.036.036-.181.144-.145.181-.325.108-.144.325-.469.469,0,.289-.145.434-.145.542a9.754,9.754,0,0,1-1.445,2.529,1.038,1.038,0,0,0,.109.505c-.289.072-.506.759-.506.687,0,.252.036.325.036.505,0,.325-.144.217-.144.542,0-.072.289,2.24.83,2.24.326,0,.506-.289.542-.289.109,0,.073.036.181.036.542,0,.361-.325.795-.325.072,0,.18.144.433.144v-.18c0-.651.9-.651,1.084-.8.867-.614,1.011-1.481,2.275-2.095a.848.848,0,0,0,.181-.578v-.109c.686-.361.975-1.3,1.481-1.914-.145-.108.108-.506.108-.831,0-.433-.216-.794-.108-1.083-.145-.145-.108-.434-.289-.687C361.27,31.694,361.089,31.91,361.125,31.91Z" fill="#00a695"/>
      </g>
    </g>
    <g id="Group_459" data-name="Group 459">
      <path id="Path_569" data-name="Path 569" d="M240.831,36.945a6.2,6.2,0,0,1,6.345-6.226,5.541,5.541,0,0,1,5.819,5.486.339.339,0,0,1-.381.406H242.071c-.286,3.053,2.1,5.414,5.391,5.414a5.909,5.909,0,0,0,3.912-1.407.366.366,0,0,1,.548.047l.167.192a.4.4,0,0,1-.071.62,6.683,6.683,0,0,1-4.579,1.621C243.407,43.1,240.831,40.331,240.831,36.945Zm10.924-1.289a4.326,4.326,0,0,0-4.556-3.864,5.045,5.045,0,0,0-5.008,3.864Z" fill="#fff"/>
      <path id="Path_570" data-name="Path 570" d="M255.141,34.488c0-4.651,3.339-8.611,9.017-8.611a8.6,8.6,0,0,1,5.1,1.526.375.375,0,0,1,.143.549l-.143.263a.324.324,0,0,1-.525.142,8.07,8.07,0,0,0-4.579-1.335c-4.89,0-7.729,3.411-7.729,7.466s2.839,7.466,7.729,7.466a8.063,8.063,0,0,0,4.579-1.336.325.325,0,0,1,.525.143l.167.286c.1.215.071.382-.072.477a8.589,8.589,0,0,1-5.2,1.574C258.48,43.1,255.141,39.139,255.141,34.488Z" fill="#fff"/>
      <path id="Path_571" data-name="Path 571" d="M271.382,36.9c0-3.364,2.218-6.178,5.963-6.178a5.436,5.436,0,0,1,5.129,3.148v-2.48a.369.369,0,0,1,.381-.406h.429a.365.365,0,0,1,.406.406V42.43a.376.376,0,0,1-.406.406h-.429a.358.358,0,0,1-.381-.406V39.95a5.4,5.4,0,0,1-5.081,3.148A5.874,5.874,0,0,1,271.382,36.9Zm11.116,0a4.873,4.873,0,0,0-5.034-5.081A4.751,4.751,0,0,0,272.6,36.9a4.8,4.8,0,0,0,4.89,5.128A4.881,4.881,0,0,0,282.5,36.9Z" fill="#fff"/>
      <path id="Path_572" data-name="Path 572" d="M287.743,42.43V31.387a.376.376,0,0,1,.406-.406h.4a.364.364,0,0,1,.405.406v2.7c.5-1.98,1.743-3.363,3.841-3.363a4.6,4.6,0,0,1,.572.048c.239.023.31.214.31.429V31.6c0,.262-.118.381-.333.333-.215-.024-.453-.047-.6-.047-2.481,0-3.769,2.528-3.794,6.392v4.15a.364.364,0,0,1-.405.406h-.4A.365.365,0,0,1,287.743,42.43Z" fill="#fff"/>
      <path id="Path_573" data-name="Path 573" d="M294.349,36.9a5.869,5.869,0,0,1,6.012-6.178,5.35,5.35,0,0,1,5.081,3.148V26a.375.375,0,0,1,.4-.405h.405a.364.364,0,0,1,.406.405V42.43a.376.376,0,0,1-.406.406h-.405a.364.364,0,0,1-.4-.406V39.95a5.35,5.35,0,0,1-5.081,3.148A5.874,5.874,0,0,1,294.349,36.9Zm11.14,0a4.875,4.875,0,0,0-5.033-5.081,4.771,4.771,0,0,0-4.89,5.081,4.81,4.81,0,0,0,4.89,5.128A4.9,4.9,0,0,0,305.489,36.9Z" fill="#fff"/>
    </g>
    <circle id="Ellipse_56" data-name="Ellipse 56" cx="1.171" cy="1.171" r="1.171" transform="translate(310.278 40.337)" fill="#fff"/>
  </g>
</svg>
